<?xml version="1.0" encoding="UTF-8" standalone="no"?>
<!-- Created with Inkscape (http://www.inkscape.org/) -->

<svg
   width="256"
   height="256"
   viewBox="0 0 67.733332 67.733333"
   version="1.1"
   id="svg1"
   xmlns="http://www.w3.org/2000/svg"
   xmlns:svg="http://www.w3.org/2000/svg">
  <defs
     id="defs1" />
  <g
     id="layer1">
    <g
       id="g15-1-0"
       transform="matrix(1.1443222,0,0,1.1443222,-178.90338,-178.44974)">
      <path
         id="path1-2-2-6-4-0-7-0-1-3"
         style="fill:#ffffff;fill-opacity:1;stroke:#ffffff;stroke-width:3.069;stroke-linecap:round;stroke-linejoin:round;stroke-dasharray:none;stroke-opacity:1"
         d="m 174.88837,161.92696 c -0.6868,2.15185 -0.46054,5.03291 -0.64441,7.45846 -0.17458,2.25332 -0.005,4.54219 0.93018,6.59081 l 1.62522,3.69951 c -1.33788,1.10771 -2.60387,3.4612 -2.55347,5.56609 -4.93844,3.59662 -7.43198,10.10565 -5.39023,15.10914 2.30171,5.64056 7.46719,8.72598 16.01866,8.79894 7.90629,0.0674 16.01719,-2.77479 18.41748,-9.2046 1.6632,-4.45529 -1.53905,-11.39176 -5.85268,-15.08818 -0.44739,-1.94125 -1.34615,-4.48851 -3.24664,-4.85917 l 1.08689,-3.76232 c 0.8217,-3.6755 1.07733,-6.07447 0.9679,-9.68364 -0.21927,-1.44353 0.25928,-4.63003 -1.09451,-4.48397 -0.3124,0.0337 -0.7228,0.24509 -1.26142,0.69609 -0.10942,0.0624 -0.21498,0.13629 -0.31832,0.216 -2.13037,1.46046 -5.83849,5.54205 -5.3511,9.97717 l -0.14883,5.21777 c -0.22425,0.81761 -1.642,1.45141 -2.65175,1.465 -0.95842,0.0129 -1.88325,-0.44979 -2.55344,-1.32229 l -0.22503,-5.4685 c -0.0807,-2.59984 -1.16459,-5.82212 -4.40025,-8.95501 -1.0111,-0.81149 -2.16928,-1.45107 -3.3538,-1.96732 z" />
      <path
         id="path1-2-2-6-4-0-9-5-0"
         style="fill:#000000;fill-opacity:1;stroke:none;stroke-width:0.969;stroke-dasharray:none;stroke-opacity:1;paint-order:stroke fill markers"
         d="m 174.88814,161.92672 c -0.6868,2.15185 -0.46054,5.03291 -0.64441,7.45846 -0.17458,2.25333 -0.005,4.54219 0.93018,6.59081 2.24716,-1.70542 4.8218,-2.72267 7.46828,-3.12694 -0.0807,-2.59984 -1.16459,-5.8221 -4.40025,-8.95499 -1.0111,-0.81149 -2.16928,-1.45109 -3.3538,-1.96734 z m 20.26439,0.14108 c -0.31241,0.0337 -0.7228,0.24508 -1.26142,0.69608 -0.10942,0.0624 -0.21499,0.1363 -0.31833,0.21601 -2.13037,1.46046 -5.83848,5.54203 -5.35109,9.97716 2.41467,0.54965 4.87784,1.78398 7.05768,3.27859 1.39859,-3.34497 0.97201,-6.45699 0.96767,-9.68387 -0.21927,-1.44353 0.25928,-4.63003 -1.09451,-4.48397 z m -18.3534,17.60771 c -1.23286,0.74849 -2.5815,3.41168 -2.55324,5.56632 -4.85512,3.54778 -7.43221,10.10541 -5.39046,15.1089 2.30171,5.64057 7.46718,8.72599 16.01866,8.79895 7.9063,0.0674 16.01718,-2.77479 18.41748,-9.20461 1.6632,-4.45529 -0.97847,-10.92819 -5.0344,-14.60644 2.21851,6.81726 0.24872,12.41021 -5.54015,12.54042 -5.3074,-0.0531 -6.83549,-0.26706 -6.77899,-5.63011 0.13522,-12.83542 -6.13565,-13.10718 -8.36142,-12.82091 -0.28493,0.0366 -0.51222,0.0864 -0.77748,0.24748 z" />
      <path
         id="path2-5-7-5-2-5-6-6-9-4"
         style="stroke-width:14.0578;stroke-linecap:round;stroke-linejoin:round;paint-order:stroke fill markers"
         d="m 197.25427,184.02958 c 0.55602,1.82173 0.33026,3.49577 -1.49146,4.05179 -1.82173,0.55601 -3.74927,-0.47004 -4.30528,-2.29177 -0.55602,-1.82172 0.47004,-3.74926 2.29176,-4.30528 1.82173,-0.55601 2.94897,0.72354 3.50498,2.54526 z" />
      <path
         id="path2-5-7-5-5-9-0-3-3-8-4"
         style="fill:#ffffff;fill-opacity:1;stroke-width:14.0578;stroke-linecap:round;stroke-linejoin:round;paint-order:stroke fill markers"
         d="m 176.19868,183.97354 c -0.55602,1.82173 -0.33026,3.49577 1.49146,4.05179 1.82173,0.55601 3.74927,-0.47004 4.30528,-2.29177 0.55602,-1.82172 -0.47004,-3.74926 -2.29176,-4.30528 -1.82173,-0.55601 -2.94896,0.72354 -3.50498,2.54526 z" />
    </g>
  </g>
</svg>
